PathFileType	4	(X/Y/Z)	RBDS04\RBDS04runT25.trc
DataRate	CameraRate	NumFrames	NumMarkers	Units	OrigDataRate	OrigDataStartFrame	OrigNumFrames
150.000000	150.000000	4	33	mm	150.000000	3937	4500
Frame#	Time	L.ASIS			L.Heel.Bottom			L.Heel.Lateral			L.Heel.Top			L.Iliac.Crest			L.MT1			L.MT5			L.PSIS			L.Shank.Bottom.Lateral			L.Shank.Bottom.Medial			L.Shank.Top.Lateral			L.Shank.Top.Medial			L.Thigh.Bottom.Lateral			L.Thigh.Bottom.Medial			L.Thigh.Top.Lateral			L.Thigh.Top.Medial			R.ASIS			R.ASY			R.Heel.Bottom			R.Heel.Lateral			R.Heel.Top			R.Iliac.Crest			R.MT1			R.MT5			R.PSIS			R.Shank.Bottom.Lateral			R.Shank.Bottom.Medial			R.Shank.Top.Lateral			R.Shank.Top.Medial			R.Thigh.Bottom.Lateral			R.Thigh.Bottom.Medial			R.Thigh.Top.Lateral			R.Thigh.Top.Medial			
		X1	Y1	Z1	X2	Y2	Z2	X3	Y3	Z3	X4	Y4	Z4	X5	Y5	Z5	X6	Y6	Z6	X7	Y7	Z7	X8	Y8	Z8	X9	Y9	Z9	X10	Y10	Z10	X11	Y11	Z11	X12	Y12	Z12	X13	Y13	Z13	X14	Y14	Z14	X15	Y15	Z15	X16	Y16	Z16	X17	Y17	Z17	X18	Y18	Z18	X19	Y19	Z19	X20	Y20	Z20	X21	Y21	Z21	X22	Y22	Z22	X23	Y23	Z23	X24	Y24	Z24	X25	Y25	Z25	X26	Y26	Z26	X27	Y27	Z27	X28	Y28	Z28	X29	Y29	Z29	X30	Y30	Z30	X31	Y31	Z31	X32	Y32	Z32	X33	Y33	Z33	

3938	26.24666666666667	2079.225851713256	982.2687850778595	917.7569387997054	1929.76917486518	121.9395480433754	935.4023137165227	1966.016485433676	126.7988015934736	893.36468097504	1954.696028321733	162.5198152980234	933.5131157603789	2014.450714402953	1051.663150933293	866.6960339505542	2138.372227118773	70.24200030195038	972.8397530918584	2103.827484331009	62.1065709962607	876.240934504455	1915.268504216396	1021.979923123749	964.6028957325443	2044.575667853393	234.6582866904625	881.7230648062706	2003.235892532114	247.3601733999598	908.4461108288405	2063.765200481368	311.962100228643	867.8228995951087	2022.578304127401	329.0048923570044	897.3742158332486	2130.41730584492	652.111859547224	842.120193407627	2070.563901336033	621.6705768404275	870.9439750265203	2073.27108775641	745.7448526767421	829.6770113340385	2017.043194283643	717.9420396256583	857.9923721223578	2071.78752629621	965.9588872598298	1108.344071248074	1726.427518757594	101.3645818241756	1045.84168039923	1556.364584000418	161.1141617310168	1032.029446367795	1588.605729577934	150.8219470466044	1074.352307530648	1590.066239495354	191.3904852252988	1037.813204234147	2031.916600881859	1036.137940465748	1143.190374868834	1732.218134796298	51.15055245989851	1001.615138479183	1697.568603970793	54.15137467130365	1098.641964052339	1917.403758437966	1020.85830138255	1050.877381145413	1679.408560639488	243.3559285859624	1096.451287600928	1651.153574788811	267.712667650315	1056.173146657005	1710.387355333496	316.4543283702542	1115.332083237038	1683.85043176224	338.6118781199993	1073.483950850588	1890.514632421163	617.6415493568943	1150.400790741514	1838.412425573806	633.130255524632	1100.091634854072	1902.589825009989	726.4497057036679	1167.377816331867	1853.442462773253	741.1424206776245	1118.608977072732	
3939	26.25333333333333	2080.022786930504	984.8295937826869	917.2558418012758	1950.34827131074	109.87513387053	936.3096803539607	1986.196847475537	116.6316927632345	894.1196145053206	1972.861509227686	151.811962621298	934.1588446953781	2015.630993733202	1055.339934666633	866.551347608602	2161.687663447973	70.35627583231128	973.4085664084811	2127.402875984677	59.89804334071811	876.9841165076799	1916.696100918175	1025.576216568616	964.2891809970724	2058.063051069486	229.5441005163643	881.917103140605	2016.245378912371	239.8680520713895	908.8903364805817	2072.679399391579	307.7643263788469	867.7602478981621	2030.71295919043	322.489265444773	897.4920967755469	2126.70705989841	652.9078555135271	842.3990529081963	2066.684174392554	623.3879422296413	871.7746656783722	2070.717082835517	747.2377236571464	829.9719881681737	2014.382799035711	720.330336176017	858.8846206411395	2072.863005293727	968.5042506868874	1107.864347880422	1716.429484878128	104.0265336800767	1046.712568102142	1549.356891053683	172.7253441563098	1033.385776131989	1581.226814198592	160.586036861014	1075.524722299729	1584.677119484675	201.1438814136351	1039.159154059532	2033.539162396571	1039.616407057086	1142.349428581113	1719.506826705932	53.32668536010066	1001.997960122934	1685.102358865589	57.37973548611689	1099.256843167485	1918.875146285202	1024.48254501803	1050.59451955723	1672.342431960173	249.5962191736196	1097.593494470703	1644.857329347102	273.7065696669615	1056.677367212002	1703.644793858562	322.7016481850382	1116.120595069456	1677.715114690451	344.6172364022303	1073.763880166989	1886.64085164062	622.5731902714599	1150.587521043281	1835.337340774716	638.5427238960135	1099.6178113089	1900.108459455621	731.3241757390941	1167.132794728218	1851.802871492371	746.4142516757406	1117.708630153316	
3940	26.26	2080.762870571125	986.9818059621598	916.8006890627732	1970.896832333165	98.67737761092428	937.1128702207058	2006.230133748299	107.3161292592183	894.7787912831423	1990.887954550731	141.8117233845484	934.7165027451666	2016.77008724856	1058.444778318066	866.3696611897576	2184.135426711957	71.48953461075845	973.9097921578003	2150.324160738052	58.77860492496708	877.6387760954182	1918.038693714975	1028.729470500296	963.9637612196766	2071.115701456122	224.9054982248032	882.0624627994421	2028.970649397478	232.8623822155623	909.295356315414	2081.219279828381	303.7697136976876	867.7066115096856	2038.613006363462	316.1685008612139	897.6167519068789	2122.559343615719	652.9954939414697	842.5637211007352	2062.417983784573	624.521179570303	872.6467151465132	2067.853328495255	748.0823660153544	830.1568985696734	2011.440445998664	722.1582382606102	859.7526458698453	2073.849613218593	970.8660746150209	1107.420991231156	1706.513742463017	107.0205521863976	1047.616671608145	1542.973185311962	184.2830600246864	1034.746997539272	1574.330053933217	170.3559715415269	1076.72052124212	1579.775587555819	210.7918457540324	1040.543738754338	2034.951974816858	1042.788201320799	1141.579508331107	1707.170686015658	55.94974729335014	1002.497945087029	1672.944500631323	60.97201148241566	1099.809522930243	1920.211400214693	1027.737176015925	1050.296081089933	1665.838359089465	255.6851367599842	1098.726110102253	1639.043863721024	279.6192216666133	1057.298447782229	1697.635934178064	328.6940512026002	1116.918878500009	1672.237331246093	350.4622151040522	1074.174471005264	1883.653432887325	626.9832464744859	1150.738363418406	1832.98579206993	643.3464334901644	1099.270270113577	1898.302801310074	735.6562602784091	1166.958471416126	1850.656172927974	751.0781111367806	1117.051390426569	
3941	26.26666666666667	2081.430969019078	988.7278363711927	916.4000364619834	1991.144849528187	88.39880255770022	937.8293848573996	2025.847615162048	98.88570441902277	895.3600897119895	2008.524507582871	132.5655859268836	935.1934390284196	2017.817623524691	1060.951786702181	866.1490574673013	2205.457651240408	73.64499259918388	974.3500366404669	2172.32187060569	58.73268270160496	878.2175728951114	1919.265174058064	1031.413154665134	963.6361331161108	2083.548777970653	220.776828685316	882.1835918901093	2041.22154667894	226.4087557108689	909.6803336186213	2089.256950231862	300.0251178144122	867.6873778097596	2046.149177553501	310.1208869856164	897.7718605103045	2118.094669618197	652.4524714311322	842.5900211753483	2057.90028674517	625.1273145896632	873.5281899218155	2064.769034047754	748.3327275906154	830.1952962260929	2008.320496039258	723.461281399152	860.5559079252241	2074.733955266675	973.0198518646354	1107.016967321888	1696.655093854662	110.2979397569495	1048.5688592453	1537.174450898304	195.7194201222626	1036.042918130484	1567.854513112229	180.0687390847373	1077.888343396572	1575.310651189811	220.2777020181684	1041.924582163417	2036.138410079926	1045.617400898314	1140.884789238622	1695.171607464113	58.97239293509625	1003.132229060145	1661.020657133653	64.89122667751556	1100.287743862808	1921.392632444771	1030.588993667192	1049.994896941271	1659.863275514556	261.5920300518994	1099.836978624021	1633.675952291799	285.4371448806554	1058.029347083416	1692.344648364262	334.3907213410014	1117.717580061692	1667.396159356588	356.1179431176447	1074.708776490097	1881.602348689102	630.7712770092995	1150.850078261995	1831.36793566289	647.464098696947	1099.078934529746	1897.220546766415	739.3460108581124	1166.86888992314	1850.003502225327	755.0589508321527	1116.689193133301	
